{"title":"Preacher Season 1 S01 1080p WEB-DL 6CH HEVC x265-GIRAYS","uid":15461979,"size":4663531139,"categoryP":"video","categoryS":"hd___tv_shows","magnet":"?xt=urn:btih:d89cbc22310b35e890fb7239ed70f827c7e0603a&amp;dn=Preacher+Season+1+S01+1080p+WEB-DL+6CH+HEVC+x265-GIRAYS&amp;tr=udp%3A%2F%2Ftracker.leechers-paradise.org%3A6969&amp;tr=udp%3A%2F%2Fzer0day.ch%3A1337&amp;tr=udp%3A%2F%2Fopen.demonii.com%3A1337&amp;tr=udp%3A%2F%2Ftracker.coppersurfer.tk%3A6969&amp;tr=udp%3A%2F%2Fexodus.desync.com%3A6969","seeders":8,"leechers":5,"uploader":"insane86","files":14,"time":1470057372,"description":"Source: Preacher.S01.1080p.WEB-DL.DD5.1.H264-RARBG\r\n\r\nScreenshots: \nhttps://postimg.org/image/u87g3k56v/ \nhttps://postimg.org/image/yim3z5a9z/ \nhttps://postimg.org/image/ws32xnsqv/\r\n\r\nEnglish subtitles are included.\r\n\r\nGeneral\r\nFormat                      : Matroska\r\nFormat version              : Version 4 / Version 2\r\nFile size                   : 600 MiB\r\nDuration                    : 1h 4mn\r\nOverall bit rate            : 1 293 Kbps\r\nMovie name                  : Preacher.S01E01.1080p.WEB-DL.DD5.1.H264-RARBG\r\nEncoded date                : UTC 2016-07-23 13:56:06\r\nWriting application         : mkvmerge v9.2.0 ('Photograph') 64bit\r\nWriting library             : libebml v1.3.3 + libmatroska v1.4.4\r\n\r\nVideo\r\nID                          : 1\r\nFormat                      : HEVC\r\nFormat/Info                 : High Efficiency Video Coding\r\nFormat profile              :   @Main\r\nCodec ID                    : V_MPEGH/ISO/HEVC\r\nDuration                    : 1h 4mn\r\nBit rate                    : 1 082 Kbps\r\nWidth                       : 1 916 pixels\r\nHeight                      : 1 076 pixels\r\nDisplay aspect ratio        : 16:9\r\nFrame rate mode             : Constant\r\nFrame rate                  : 23.976 (24000/1001) fps\r\nColor space                 : YUV\r\nChroma subsampling          : 4:2:0\r\nBit depth                   : 8 bits\r\nBits/(Pixel*Frame)          : 0.022\r\nStream size                 : 501 MiB (84%)\r\nDefault                     : Yes\r\nForced                      : No\r\n\r\nAudio\r\nID                          : 2\r\nFormat                      : AAC\r\nFormat/Info                 : Advanced Audio Codec\r\nFormat profile              : HE-AAC / LC\r\nCodec ID                    : A_AAC\r\nDuration                    : 1h 4mn\r\nBit rate                    : 210 Kbps\r\nChannel(s)                  : 6 channels\r\nChannel positions           : Front: L C R, Side: L R, LFE\r\nSampling rate               : 48.0 KHz / 24.0 KHz\r\nFrame rate                  : 23.438 fps (1024 spf)\r\nCompression mode            : Lossy\r\nDelay relative to video     : 40ms\r\nStream size                 : 97.2 MiB (16%)\r\nLanguage                    : English\r\nDefault                     : No\r\nForced                      : No\r\n\r\nText\r\nID                          : 3\r\nFormat                      : UTF-8\r\nCodec ID                    : S_TEXT/UTF8\r\nCodec ID/Info               : UTF-8 Plain Text\r\nDuration                    : 1h 2mn\r\nBit rate                    : 47 bps\r\nCount of elements           : 769\r\nStream size                 : 21.9 KiB (0%)\r\nLanguage                    : English\r\nDefault                     : Yes\r\nForced                      : No","torrent":{"xt":"urn:btih:d89cbc22310b35e890fb7239ed70f827c7e0603a","amp;dn":"Preacher+Season+1+S01+1080p+WEB-DL+6CH+HEVC+x265-GIRAYS","amp;tr":["udp%3A%2F%2Ftracker.leechers-paradise.org%3A6969","udp%3A%2F%2Fzer0day.ch%3A1337","udp%3A%2F%2Fopen.demonii.com%3A1337","udp%3A%2F%2Ftracker.coppersurfer.tk%3A6969","udp%3A%2F%2Fexodus.desync.com%3A6969"],"infoHash":"d89cbc22310b35e890fb7239ed70f827c7e0603a","infoHashBuffer":{"type":"Buffer","data":[216,156,188,34,49,11,53,232,144,251,114,57,237,112,248,39,199,224,96,58]},"announce":[],"urlList":[]}}